<svg width="78" height="78" viewBox="0 0 78 78" fill="none" xmlns="http://www.w3.org/2000/svg">
<path d="M11.2261 26.9479C14.8688 22.6688 18.8636 18.5792 23.2782 15.099C26.3522 12.675 27.4084 12.5532 29.1011 12.0927C29.5615 11.9709 29.9678 11.6865 30.3605 11.4021C46.8407 -0.23018 67.8438 8.0167 71.9063 28.5459C74.6011 42.1688 67.6542 55.6969 55.7105 61.2219C55.5209 61.3167 55.2365 61.3438 55.1417 61.4927C52.7719 65.2032 47.9511 66.6386 45.0126 67.3698C44.4167 67.5865 43.9563 68.2094 43.4147 68.6157C42.9949 68.9271 42.5751 69.2657 42.1011 69.4823C26.5688 76.6865 9.87194 67.0448 6.21569 51.0927C5.70111 48.8448 3.43965 35.2761 11.2261 26.9479ZM43.5772 60.3552C49.1157 60.3282 52.7313 59.4209 55.9678 57.6469C71.5407 49.1021 73.8699 25.8917 60.1657 14.5573C52.3115 8.07086 42.2636 6.97399 33.4344 13.1896C22.9397 20.5698 19.1344 35.6959 25.0115 47.125C29.2365 55.3448 35.9397 59.8813 43.5772 60.3552ZM48.8719 63.8625C49.549 63.6188 49.6438 63.4427 49.5355 63.3615C49.5355 63.3615 49.2511 63.3615 48.7772 63.375C36.5897 64.2959 27.4219 59.448 21.9917 48.5198C16.6834 37.849 17.9699 27.3677 24.2397 17.3334C23.7386 17.5771 23.3324 17.875 22.9667 18.2136C14.5167 25.8646 12.0251 38.824 16.9001 49.9011C21.3959 60.125 30.8344 66.1917 41.4511 65.4334C43.9428 65.2573 46.3938 64.4042 48.8719 63.8625ZM13.0813 28.7354C13.0949 28.3427 12.7292 28.8302 12.6751 28.8979C12.4855 29.1552 12.2959 29.4261 12.1334 29.6969C9.89903 33.4615 8.50424 37.5375 8.31465 41.9115C7.86778 51.8782 11.3615 60.1386 19.798 65.7719C25.4042 69.5229 31.6334 70.2948 38.1469 68.2636C28.6272 67.3021 21.2063 62.8875 16.1959 54.7354C11.1855 46.6104 10.3865 37.8896 13.0813 28.7354Z" fill="black"/>
<path d="M53.8688 37.4157C55.7376 37.4834 56.3469 38.4584 55.7376 40.2188C54.2209 44.5521 49.9553 46.6646 45.6084 45.1479C43.0355 44.2406 41.0178 42.5886 39.623 40.2323C38.5532 38.4177 39.0272 37.375 41.1261 37.2396C43.3199 37.0907 51.824 37.3344 53.8688 37.4157ZM53.449 39.5282C49.7115 39.5282 46.0688 39.5282 42.3855 39.5282C46.123 43.875 51.648 43.9563 53.449 39.5282Z" fill="black"/>
<path d="M38.6343 29.7378C38.6478 31.8503 36.6166 33.7732 34.3958 33.7597C32.4593 33.7461 31.1051 31.9993 31.0916 30.1441C31.0645 28.2888 32.9603 26.4607 35.0458 26.4066C37.0499 26.3388 38.6343 27.8013 38.6343 29.7378ZM34.5718 28.3972C33.5697 28.5597 33.2583 29.5076 33.3395 30.2253C33.4478 31.268 34.2333 31.5253 34.7208 31.5388C35.1812 31.5524 36.0885 31.092 36.2781 30.1982C36.5218 29.2909 36.0072 28.0586 34.5718 28.3972Z" fill="#CD4631"/>
<path d="M64.5124 30.3063C64.4853 32.3511 63.0364 33.8542 61.0999 33.8407C59.0145 33.8272 57.5114 32.1345 57.5791 29.873C57.6333 27.9095 59.0958 26.3928 60.9103 26.4334C62.7926 26.4876 64.5395 28.3563 64.5124 30.3063ZM62.6437 30.2522C62.6437 29.2095 62.0885 28.5053 61.2218 28.5053C60.6937 28.5053 59.7999 28.9115 59.7999 30.022C59.7999 31.9584 61.2218 31.8501 61.2218 31.8501C61.9801 31.823 62.6437 31.5115 62.6437 30.2522Z" fill="#81ADC8"/>
</svg>
