<svg width="78" height="78" viewBox="0 0 78 78" fill="none" xmlns="http://www.w3.org/2000/svg">
<path d="M20.1094 35.9263C18.3625 37.5107 16.6698 38.8919 15.0448 40.5982C12.6615 43.0898 10.4407 45.7305 8.15213 48.3034C7.5563 48.9669 7.08234 49.9419 5.94484 49.4274C5.20005 49.0888 5.20005 48.2357 5.91776 46.8274C6.33755 46.0149 6.81151 45.2294 7.36671 44.4982C10.5084 40.3409 14.2188 36.7523 18.498 33.7732C19.2292 33.2721 20.0282 32.8117 20.8678 32.5273C22.4657 31.9992 23.698 32.9201 23.549 34.5992C23.4542 35.6826 23.075 36.7659 22.75 37.8221C22.1271 39.8263 21.4094 41.7898 20.8136 43.8076C20.6511 44.3628 20.448 45.3242 20.7865 45.744C21.3688 46.3669 23.1021 44.5794 23.874 43.7534C26.2438 41.2482 28.5323 38.6617 30.875 36.1294C33.2178 33.5836 35.8042 31.2951 38.824 29.5753C39.7042 29.0742 40.6521 28.6409 41.6271 28.3836C43.198 27.9638 44.4438 29.0065 44.3355 30.6451C44.2813 31.4305 44.0511 32.243 43.7125 32.9607C42.8459 34.7617 41.8573 36.4951 40.95 38.269C40.0021 40.1242 39.0136 41.9794 38.6615 44.4982C39.325 43.9024 39.7584 43.5638 40.124 43.1576C42.5073 40.5846 44.8365 37.9711 47.2469 35.4253C49.4407 33.1096 51.7834 30.943 54.6136 29.4263C55.6834 28.8576 56.8886 28.4107 58.0803 28.2482C59.7323 28.0315 60.8698 29.2909 60.5448 30.9294C60.3011 32.1346 59.7865 33.2992 59.2719 34.4096C58.2834 36.5086 57.2001 38.5534 56.1844 40.6253C55.9542 41.0857 55.2501 42.169 55.8865 42.2773C56.5636 41.5596 57.2407 40.8284 57.9313 40.1242C59.7594 38.2148 61.5469 36.2784 63.4292 34.4232C65.1219 32.744 67.0042 31.2951 69.4146 30.7534C71.4459 30.293 72.8813 31.5523 72.5563 33.6107C72.3938 34.5992 72.0688 35.6148 71.6084 36.5086C69.6042 40.4492 67.5323 44.3492 65.474 48.2628C65.2438 48.6826 64.9865 49.1294 64.6209 49.4274C64.2823 49.6982 63.7136 50.0096 63.3886 49.8878C63.0636 49.7659 62.4678 49.3326 62.5355 48.4794C62.6032 47.694 62.8334 47.1117 63.1448 46.4076C64.5803 43.1576 66.0969 39.9482 67.5865 36.7253C67.9928 35.8586 68.4261 35.0055 68.8459 34.1388C68.9948 33.8815 68.9542 33.8409 68.873 33.7461C68.4803 33.543 67.3969 34.369 66.9501 34.8023C64.3907 37.2669 61.8719 39.7586 59.3667 42.2638C58.3782 43.2523 57.4709 44.3357 56.4823 45.3242C55.6698 46.1367 54.6678 46.5971 53.5438 46.0555C52.4198 45.5138 52.1084 44.3763 52.298 43.293C52.5688 41.7086 52.9073 40.0971 53.5573 38.6482C54.5323 36.4409 55.8053 34.3555 56.9428 32.2159C57.1323 31.8503 57.2948 31.4576 57.6063 30.7534C56.9021 31.0513 56.4688 31.1732 56.0761 31.3898C53.5032 32.8253 51.323 34.7617 49.3594 36.9148C47.0032 39.5013 44.7959 42.2232 42.4667 44.8503C41.5459 45.893 40.598 46.9628 39.5011 47.8023C37.375 49.4544 35.249 48.5742 34.9782 45.9065C34.8563 44.6471 35.0459 43.3201 35.3438 42.0878C36.0886 38.9596 37.7813 36.2378 39.3792 33.4888C39.7178 32.9065 40.0563 32.3242 40.273 31.6607C37.6594 32.6221 35.5469 34.2742 33.6375 36.143C30.6719 39.0409 27.8688 42.1148 24.9709 45.0669C24.2261 45.8253 23.4 46.5565 22.4928 47.1117C20.949 48.0461 19.2698 47.3284 18.8907 45.568C18.6063 44.2815 18.5928 42.8596 18.7959 41.5596C19.0803 39.6503 20.3261 36.143 20.2719 35.9263C20.2719 35.7232 20.1094 35.9263 20.1094 35.9263Z" fill="#81ADC8"/>
</svg>
