<svg width="78" height="78" viewBox="0 0 78 78" fill="none" xmlns="http://www.w3.org/2000/svg">
<path d="M53.6792 22.8174C53.3406 26.1622 53.0969 28.9517 52.7584 31.7278C52.5688 33.2445 51.9458 34.558 50.2396 34.9236C48.8177 35.2215 47.3417 34.4361 46.4886 32.6892C45.6625 31.0101 45.0667 29.209 44.4438 27.4351C42.6427 22.3434 39.8667 17.8205 36.4271 13.6903C35.3573 12.4038 34.3011 11.1174 33.0688 9.62779C32.7979 10.5351 32.5813 11.2663 32.3646 11.9976C30.0625 19.9465 29.2771 28.0445 29.6292 36.2913C29.7375 38.959 29.4261 41.6809 29.0469 44.3351C28.8031 46.0413 28.1667 47.7747 26.1084 48.1538C24.6323 48.4247 23.1698 47.2059 22.2761 44.9851C21.6802 43.4955 21.2875 41.9111 20.7458 40.3945C20.4479 39.5413 20.0146 38.7424 19.6219 37.8486C14.6521 43.8882 18.4438 63.808 25.0656 66.7195C25.0927 61.384 27.5438 56.9695 30.4417 52.7986C34.5448 46.8945 36.7792 40.3674 37.524 33.2715C37.5781 32.7434 37.6865 32.2017 37.7813 31.6872C38.2417 29.2767 39.2302 28.884 41.0313 30.6715C42.1958 31.8226 43.225 33.2445 43.9021 34.7205C47.2604 41.9517 48.6552 49.4538 46.3802 57.3351C46.1229 58.2017 45.5406 59.4205 45.974 60.0434C46.7323 60.9913 47.924 59.3663 48.1813 58.7028C48.8584 56.9559 49.2781 55.1278 49.8198 53.3267C50.1584 52.2028 50.3615 50.9705 50.9708 49.9955C51.4448 49.2372 52.474 48.3028 53.1781 48.3705C53.9094 48.4382 54.925 49.4809 55.1688 50.2934C56.9563 56.3465 56.1167 61.8851 50.5375 66.584C47.6667 69.008 44.1323 69.7934 40.5167 70.2674C36.4406 70.7955 32.4188 70.958 28.3292 70.0236C26.3792 69.5767 24.3479 69.2788 23.1698 68.8455C21.9917 68.4122 20.9896 67.532 20.5156 66.8007C14.4896 57.4976 13.5011 47.6934 17.7396 37.4153C18.6198 35.2892 20.3125 34.8424 21.8021 36.6028C22.899 37.9028 23.5219 39.6497 24.2125 41.2747C24.6865 42.4122 24.9438 43.6445 25.2688 44.8361C25.675 46.3257 26.2709 46.5559 26.6771 46.2986C27.1781 46.1497 27.4761 44.3486 27.4219 42.5476C27.3271 39.582 27.3813 36.6028 27.0698 33.6642C26.1625 25.0517 28.2615 16.9809 31.3219 9.07258C32.0802 7.0955 32.9469 6.85175 34.5719 8.233C41.2344 13.8799 46.0417 20.759 48.2219 29.3174C48.5604 30.6174 48.6688 32.0799 50.3209 33.109C50.4833 31.8497 50.6188 30.807 50.7677 29.7778C51.1469 27.232 51.3906 24.659 51.9594 22.1674C52.3115 20.6642 53.3542 20.3528 54.4511 21.4361C55.8865 22.858 57.2948 24.4288 58.2292 26.2028C61.7094 32.8382 62.9011 40.0424 62.874 47.4632C62.8469 53.2997 61.7636 58.9601 59.0823 64.1736C58.175 65.9476 56.6448 67.4101 55.3448 68.9674C54.7625 69.6715 53.4354 69.4413 54.0448 67.8705C54.099 67.7351 54.1667 67.5726 54.2615 67.4372C59.299 60.6799 59.8 52.7715 59.8677 44.809C59.9219 38.458 59.0011 32.2288 56.0354 26.4872C55.4125 25.309 54.6136 24.2528 53.6792 22.8174ZM52.9479 50.5913C52.149 53.2455 51.5261 55.4392 50.8083 57.6195C50.2396 59.3392 49.3729 60.8965 47.6667 61.7497C45.6896 62.7517 43.7667 61.6413 43.6584 59.4205C43.6177 58.5132 43.6583 57.5788 43.8344 56.6986C45.2156 49.6299 44.5656 42.7778 41.8031 36.1288C41.3292 34.9913 40.6386 33.9486 39.9479 32.7028C39.7042 33.109 39.5281 34.5851 39.5011 35.2215C39.325 40.0424 38.7834 44.809 36.2511 49.0611C34.7344 51.5934 33.0281 54.0174 31.3761 56.482C29.5479 59.2309 27.9229 62.0747 27.3271 65.3788C26.9209 67.6403 27.0969 67.7486 29.2636 68.3038C33.8542 69.4684 38.35 68.7236 42.8323 67.8299C47.9375 66.8142 51.1198 63.4559 53.0156 58.8247C54.0584 56.2924 53.7604 53.6653 52.9479 50.5913Z" fill="#CD4631"/>
</svg>
