<svg width="78" height="78" viewBox="0 0 78 78" fill="none" xmlns="http://www.w3.org/2000/svg">
<path d="M29.1146 29.1961C27.7604 28.2211 26.7719 27.5034 25.7833 26.7992C21.8021 23.9419 17.7938 21.0982 13.8396 18.2003C12.8917 17.5096 11.9979 16.6565 11.3344 15.7086C10.9552 15.1398 10.8333 14.1242 11.0906 13.5284C11.2396 13.1763 12.4583 12.9867 13.0406 13.1898C14.4625 13.6638 15.8438 14.3138 17.1438 15.0586C21.1927 17.4013 25.2011 19.8253 29.3854 22.3169C29.7646 19.8253 30.0896 17.3471 30.55 14.8961C30.9021 13.0003 31.3896 11.1044 31.9177 9.24921C32.2563 8.044 32.974 7.0013 34.4229 7.20442C35.9261 7.40755 36.4136 8.59921 36.3865 9.93984C36.3323 13.9346 36.1969 17.9159 36.1156 21.9107C36.0886 22.8586 36.1156 23.8065 36.1156 24.7544C36.2646 24.8898 37.5375 23.7523 38.1333 23.17C43.225 18.1867 48.3167 13.2305 53.4625 8.3013C54.1802 7.61067 55.0875 7.02838 56.0083 6.64921C56.4958 6.44609 57.4167 6.59505 57.7417 6.94713C58.0667 7.29921 58.1344 8.22005 57.9042 8.69401C57.4708 9.6013 56.8208 10.4273 56.1302 11.1721C51.5938 16.1555 47.0302 21.1117 42.4802 26.0815C41.9792 26.6232 41.4781 27.1919 40.7333 28.018C44.1458 27.7742 47.2198 27.5034 50.2938 27.3409C56.4823 27.0294 62.6844 26.7721 68.8729 26.5013C69.2521 26.4878 69.6583 26.4878 69.9833 26.5555C72.1094 27.0023 71.9198 29.1284 70.3219 29.3992C68.3719 29.7378 66.4083 30.1575 64.4313 30.3607C57.349 31.0648 50.2667 31.6878 43.1844 32.3513C43.0354 32.3648 42.9 32.419 42.4531 32.5409C44.4031 34.0711 46.2042 35.4794 48.0052 36.8742C51.4042 39.5284 54.8438 42.1419 58.1886 44.8503C59.0823 45.5815 59.8677 46.543 60.4365 47.545C61.0458 48.6013 60.4094 49.5086 59.2448 49.2242C57.8229 48.8586 56.3604 48.2763 55.1552 47.4503C49.2781 43.4419 43.4823 39.3117 37.6594 35.2221C37.0094 34.7617 36.3594 34.3013 35.4115 33.6107C35.2083 36.6846 35.0458 39.4471 34.8292 42.2096C34.1792 50.4294 33.5292 58.6492 32.8521 66.869C32.7708 67.7763 32.5948 68.6971 32.324 69.5638C31.9583 70.7555 31.1458 71.5409 29.8323 71.4461C28.6 71.3513 27.8823 70.5253 27.6656 69.3607C27.4625 68.2503 27.3542 67.1128 27.3677 65.9888C27.449 58.6492 27.5708 51.3232 27.6792 43.9836C27.6927 43.4419 27.6792 42.9138 27.6792 41.9794C27.0563 42.5753 26.6229 42.968 26.2031 43.3878C21.5177 48.0732 16.8323 52.7721 12.1333 57.4576C11.6052 57.9857 11.0094 58.5138 10.3323 58.8117C9.87189 59.0148 9.05939 59.0013 8.7073 58.7169C8.35522 58.4326 8.27397 57.6336 8.27397 57.1596C8.28751 55.6701 9.08647 55.0065 9.79064 54.1534C13.9344 49.1294 18.1458 44.1461 22.3844 39.1898C23.9146 37.4023 25.5802 35.7367 27.5438 33.6513C23.874 34.0711 20.6917 34.4773 17.5094 34.7753C14.449 35.0596 11.3886 35.2357 8.31459 35.4523C7.98959 35.4794 7.65105 35.4253 7.35313 35.3846C5.79584 35.195 6.67605 33.543 7.12293 33.4346C10.1969 32.6763 13.2979 31.945 16.4125 31.3763C20.1094 30.7398 28.275 29.4805 29.1146 29.1961Z" fill="black"/>
</svg>
