<svg width="78" height="78" viewBox="0 0 78 78" fill="none" xmlns="http://www.w3.org/2000/svg">
<path d="M13.5415 44.674C13.0811 44.1053 11.903 45.6626 11.0498 44.9178C10.1967 44.1865 11.3748 43.1709 11.8623 42.5345C12.7019 41.424 13.7175 40.422 14.8009 39.5688C15.2207 39.2303 16.1957 38.7292 16.6832 39.3522C16.9946 39.7449 17.0759 40.097 16.5748 41.0449C16.304 41.5459 16.1686 41.8167 15.4509 42.6834C15.4509 42.9542 15.8571 43.2522 16.1686 43.523C22.6821 49.1969 30.0353 53.0428 38.8238 53.4626C47.6123 53.8959 55.1686 51.174 60.9103 44.2407C61.4248 43.6313 62.129 43.0626 62.2238 42.3584C62.2915 41.8303 62.0613 41.5595 61.3436 40.5574C61.1134 40.2459 61.005 39.4876 61.4248 39.0136C62.1155 38.2011 62.8603 38.6209 63.1175 38.8647C64.8644 40.5709 66.2186 42.5751 67.2071 44.3761C67.3967 44.9719 67.0853 45.4595 66.7738 45.7574C66.5165 46.0011 65.8394 45.974 65.4332 45.8251C64.9592 45.649 64.5665 45.2292 63.9436 44.7688C57.6603 53.0022 49.1696 56.9292 38.878 56.5501C28.7488 56.2115 19.879 51.8917 13.5415 44.674Z" fill="black"/>
<path d="M50.3478 29.7916C50.3071 26.2301 52.8259 23.3593 55.9676 23.3729C58.703 23.3864 61.1405 26.176 61.1676 29.3312C61.1811 32.3239 58.5269 35.0999 55.5884 35.1406C52.6228 35.1676 50.3749 32.8791 50.3478 29.7916ZM52.9613 29.4124C52.9884 31.1187 54.153 32.351 55.7374 32.3239C57.1186 32.2968 58.4457 30.9426 58.378 29.5885C58.3103 27.9229 57.4301 26.2031 55.2905 26.4468C54.0717 26.5822 52.9342 27.4353 52.9613 29.4124Z" fill="#CD4631"/>
<path d="M26.2301 27.0562C26.2031 30.225 23.6166 32.9062 20.5562 32.9198C17.6447 32.9333 15.3291 30.3604 15.4645 27.0427C15.6135 22.9667 17.8749 21.7073 21.1926 21.4094C23.7926 21.1792 26.2437 24.1312 26.2301 27.0562ZM18.0103 26.7719C17.9968 28.776 19.0801 30.2792 20.5291 30.2927C22.1406 30.3062 23.6437 28.7354 23.6437 27.0156C23.6437 25.4313 22.2083 23.9146 20.7458 23.9552C18.8906 24.0094 18.0103 24.9167 18.0103 26.7719Z" fill="#81ADC8"/>
</svg>
