<svg width="78" height="78" viewBox="0 0 78 78" fill="none" xmlns="http://www.w3.org/2000/svg">
<path d="M69.6584 24.7411C70.0782 25.2015 70.1323 25.8786 69.8073 26.4202C69.5094 26.9213 69.2521 27.3546 68.9542 27.7609C65.8667 32.04 64.174 34.2744 61.1271 38.5807C60.3553 39.664 58.4865 42.9817 57.7688 44.1192C57.7553 44.1327 57.7553 44.1463 57.7417 44.1598C57.0917 45.1348 55.4938 45.0671 54.9792 43.9973C54.9792 43.9973 54.9792 43.9838 54.9657 43.9838C54.2073 42.3182 53.598 40.5984 52.8938 38.9057C50.9573 34.2338 48.2626 30.1848 43.7803 27.5307C42.1553 26.5692 42.1282 25.865 43.3875 24.4702C43.8615 23.9557 44.3355 23.4275 44.85 22.9671C49.8198 18.539 53.2459 13.0682 55.8053 6.97441C55.9678 6.59524 56.2928 6.29733 56.6448 5.99941C57.1053 5.62024 57.7688 5.67441 58.175 6.10774C58.5136 6.45983 58.825 6.83899 59.0146 7.25879C59.4344 8.23379 59.5428 9.33066 59.8 10.3734C61.1813 16.0473 64.2553 20.5702 68.9271 24.0505C69.1844 24.24 69.4146 24.4838 69.6584 24.7411ZM57.2136 11.1452C55.6021 13.8265 54.248 16.589 52.4063 18.9994C50.524 21.4505 48.1678 23.5359 46.0146 25.7973C51.4855 29.0744 54.6542 34.2609 56.5636 40.6255C59.3667 34.8296 63.2396 30.2255 67.4917 25.9192C60.775 20.8005 59.1771 18.4848 57.2136 11.1452Z" fill="black"/>
<path d="M18.5927 71.4733C17.3605 67.9796 16.2907 64.4181 14.9365 60.9785C13.6094 57.6473 11.6323 54.6817 8.78858 52.3931C7.74587 51.5535 7.77295 50.7952 8.62608 49.8473C13.4198 44.6337 17.1032 38.7296 19.7438 32.1619C20.0282 31.4577 20.7865 30.3337 21.3146 30.3337C22.75 29.9952 23.2646 32.7983 23.3188 33.0556C24.524 39.664 28.6136 44.4712 33.2042 48.9671C34.6938 50.4296 34.8157 50.8765 33.3532 52.2848C27.8417 57.566 24.1855 64.066 21.0438 70.9046C20.0552 73.2879 18.7417 71.8931 18.5927 71.4733ZM10.4407 50.7817C13.3657 52.6369 15.3021 55.115 16.7105 57.9181C18.0782 60.6671 19.0802 63.5785 20.2177 66.3681C22.8448 60.491 26.3927 55.0608 31.7823 50.9306C26.5688 46.8275 22.4521 42.1421 21.1927 35.4254C18.9313 41.465 15.3427 46.489 10.4407 50.7817Z" fill="#81ADC8"/>
<path d="M55.602 56.9026C52.6093 60.9245 50.7812 65.5152 49.102 70.187C48.9937 70.4849 48.6416 72.1777 47.3551 72.1641C46.9895 72.1641 46.3801 71.5818 46.1499 71.1214C45.1343 69.0495 44.4978 66.7339 43.2114 64.8652C41.6947 62.6443 39.6093 60.8162 37.8489 58.7714C37.5916 58.4735 37.4968 57.7964 37.6593 57.4308C37.9708 56.7537 38.526 56.212 38.9593 55.5891C41.1666 52.3391 43.3333 49.062 45.6083 45.8662C46.0822 45.2026 47.0166 44.4037 47.5718 44.4037C48.953 44.3901 49.2239 45.4735 49.4676 46.2454C50.578 49.7933 52.4874 52.7589 55.2635 55.2099C56.252 56.1308 55.7239 56.7401 55.602 56.9026ZM40.3947 57.837C43.6176 60.1256 45.8114 63.4297 47.1385 67.1266C49.102 63.5245 51.1062 59.8547 53.1645 56.0631C50.402 54.1537 48.4791 50.5922 47.5989 47.9651C45.1885 51.2693 42.8051 54.5329 40.3947 57.837Z" fill="#CD4631"/>
</svg>
