<svg width="275" height="275" viewBox="0 0 275 275" fill="none" xmlns="http://www.w3.org/2000/svg">
<path d="M56.8516 209.033C50.4038 200.295 43.9872 212.047 46.928 218.841C48.1017 221.552 48.215 224.819 51.3326 225.733C52.2975 226.016 53.1586 227.177 54.2248 227.177C56.0228 227.177 56.6913 226.742 58.2844 226.196" stroke="#4D4D4D" stroke-width="3" stroke-linecap="round" stroke-linejoin="round"/>
<path d="M59.2395 227.667C60.55 234.563 61.0589 242.112 64.387 248.263C66.9056 252.918 72.0638 257.418 77.362 258.098C80.8065 258.54 83.6386 259.507 87.2059 258.67C89.9449 258.027 92.453 256.889 95.1129 256.109C97.3148 255.463 99.2219 253.887 100.791 252.186C102.796 250.013 103.612 247.175 105.196 244.939C106.268 243.426 106.522 240.035 106.522 238.183C106.522 235.706 107 233.471 107 230.991C107 225.639 105.09 220.46 105.09 215.163C105.09 213.613 104.222 212.132 104.134 210.504C104.019 208.374 103.53 205.554 103.153 203.421C102.804 201.453 102.224 199.409 102.224 197.373C102.224 194.018 100.953 197.375 99.3583 196.283" stroke="#4D4D4D" stroke-width="3" stroke-linecap="round" stroke-linejoin="round"/>
<path d="M52.5529 202.168C51.3841 197.818 52.2183 193.245 50.4037 189.146C49.3021 186.658 50.5798 182.879 51.0139 180.428C51.3268 178.661 51.1201 176.746 51.1201 174.952C51.1201 173.399 52.3023 172.524 52.5264 171.029C52.7425 169.587 51.9358 168.124 50.6425 167.46C49.3975 166.821 49.9682 167.23 50.8547 166.371C51.3523 165.888 53.2396 165.038 53.004 164.191C52.8426 163.611 52.1012 163.87 54.0388 163.428C55.6468 163.061 57.6727 161.467 59.2394 161.467C60.9004 161.467 61.9203 161.115 63.6439 160.486C65.515 159.803 66.3823 161.617 67.624 161.385C69.0925 161.111 70.1834 159.069 71.8694 159.069C72.0513 159.069 72.8078 159.963 73.6736 159.996C74.995 160.046 76.5381 160.938 77.866 160.377C78.7503 160.003 78.0037 161.689 79.06 161.93C81.4136 162.467 83.7021 160.061 85.7464 159.287C87.7116 158.544 86.8776 159.35 86.3567 160.486C86.0289 161.201 90.3085 161.204 91.1328 161.358C93.3487 161.772 92.2865 161.634 91.0266 162.693C89.3426 164.107 91.7938 164.409 92.937 164.409C95.2355 164.409 94.6476 164.242 94.5821 165.989C94.5126 167.846 94.9044 167.682 96.0149 168.822C96.7604 169.588 96.8282 170.807 97.6866 171.492C98.5084 172.149 100.314 170.782 99.7827 172.555C99.2609 174.296 98.0385 175.763 97.5539 177.54C97.2388 178.696 99.7403 178.532 100.313 179.12C101.835 180.682 100.197 181.251 99.8623 182.798C99.6042 183.991 100.512 184.369 100.764 185.277C101.06 186.339 99.3632 186.825 99.9419 187.947C100.572 189.169 100.794 188.923 99.8358 190.399" stroke="#4D4D4D" stroke-width="3" stroke-linecap="round" stroke-linejoin="round"/>
<path d="M47.7771 167.351C46.7133 167.991 43.008 169.916 45.8666 171.383C47.0619 171.997 45.5971 171.174 45.8932 173.454C46.2431 176.148 47.0518 175.832 45.1502 178.385C43.6191 180.441 45.0756 181.337 44.0624 183.534C43.4867 184.781 43.0528 186.456 43.001 187.838C42.9203 189.992 47.6822 190.897 46.53 192.606C46.0302 193.347 44.5773 194.388 44.6461 195.412C44.7563 197.052 47.4034 198.698 48.4404 199.716C48.9499 200.216 50.42 201.542 49.5813 202.168C48.6296 202.879 49.583 202.808 50.059 203.639C50.452 204.325 51.3856 205.601 51.3856 205.601C51.3856 205.601 50.9319 202.082 50.3508 200.424C49.8331 198.948 48.97 197.907 47.9893 196.774C47.6032 196.328 48.7246 195.825 48.9976 195.493C50.9253 193.154 51.545 186.912 48.2547 185.223C47.6611 184.918 48.4473 186.711 48.9711 187.13C49.9521 187.913 50.1019 183.707 50.059 183.316C49.7984 180.942 48.9733 179.368 47.3525 177.704C46.2449 176.566 46.6131 176.794 47.8036 176.641C49.3177 176.447 51.1085 174.834 49.4487 173.508C48.2856 172.579 49.9526 176.941 50.6427 177.649" stroke="#4D4D4D" stroke-width="3" stroke-linecap="round" stroke-linejoin="round"/>
<path d="M55.8963 205.11C56.5829 206.012 57.6967 206.748 58.2844 207.671C58.8237 208.518 58.8 209.602 59.2396 210.504C60.3496 212.784 61.15 208.977 61.15 207.943C61.15 207.053 60.2591 203.403 59.3457 205.982C59.1412 206.559 59.708 204.934 59.7172 204.511C59.7506 202.966 59.7121 201.416 59.2396 199.934C58.4886 197.578 56.6468 194.82 54.9411 193.069C54.5133 192.629 55.7841 194.075 56.3739 194.213C57.6952 194.523 58.2618 193.59 58.2844 192.36C58.3002 191.5 56.4126 184.456 54.5697 186.585C54.4824 186.686 57.8068 188.124 57.8068 185.25C57.8068 184.058 55.63 182.507 57.8068 183.997C59.9207 185.444 62.4885 184.041 63.7238 182.09C65.3058 179.591 62.2335 179.198 64.7586 181.79C67.0406 184.133 70.5214 182.631 72.3206 180.373C72.7824 179.794 74.5718 182.104 76.4334 181.763C77.4327 181.58 80.9571 178.919 81.687 179.856C83.9252 182.728 88.7194 182.181 91.7167 182.063C92.8693 182.017 97.9064 178.481 96.0152 177.268C94.8343 176.51 94.5673 180.033 96.4928 178.521C99.1346 176.447 97.5741 173.699 95.5376 172.146C93.4796 170.576 95.8101 171.735 95.4314 169.694C94.9446 167.07 91.8559 163.4 88.9572 165.226C85.1346 167.635 90.5492 170.111 90.5492 167.133C90.5492 163.177 83.2999 161.557 80.5726 163.047C77.8499 164.534 81.7834 164.727 80.3869 164.137C78.6062 163.384 76.5135 163.081 74.6025 162.965C73.8338 162.919 72.3336 163.249 71.6838 162.693C70.7006 161.852 68.3315 161.126 67.0935 160.731C62.8253 159.371 63.3364 163.235 64.9443 166.262C66.4844 169.161 59.9987 167.343 58.7885 167.161C55.5451 166.671 53.6202 171.22 57.0373 171.22C58.3062 171.22 57.3297 170.682 56.772 170.539C54.9804 170.079 53.3986 170.805 52.102 172.092C49.1433 175.028 50.3478 181.451 55.3126 179.829C57.0179 179.272 54.9788 178.249 54.1451 178.249C51.5935 178.249 48.4683 179.859 47.6179 182.444C46.0438 187.228 57.8875 181.128 59.2396 179.992C60.1397 179.236 61.104 178.455 59.9825 177.54C59.1007 176.821 56.4154 175.143 57.5414 175.143C58.1756 175.143 60.7879 177.581 61.6276 177.922C63.0051 178.481 65.4157 179.172 66.669 177.922C69.5877 175.01 63.8814 173.659 64.1218 174.326C65.925 179.325 74.7895 176.355 77.5478 174.326C78.6171 173.539 78.7235 172.231 77.1763 173.072C75.4956 173.986 74.115 176.16 74.8413 178.14C76.5578 182.817 87.0197 180.462 87.7897 176.015C88.0273 174.642 85.5535 174.022 84.6588 174.543C82.3666 175.881 84.3606 178.436 86.1447 178.766C90.8103 179.628 98.9142 174.072 91.6902 170.893C90.1249 170.204 87.2088 169.826 86.0916 171.547C84.7239 173.653 88.8264 173.556 89.7798 173.372C98.0994 171.77 88.3203 167.061 85.7997 165.635C83.7744 164.489 78.6466 161.106 80.4399 166.262C80.6686 166.919 79.2716 164.926 79.0337 164.682C77.6469 163.258 75.6803 162.199 73.78 161.794C71.5336 161.315 68.7161 161.321 67.0139 163.156C65.8947 164.363 67.2468 164.773 68.3141 164.872C68.6755 164.906 70.8537 164.983 69.8796 164.137C68.444 162.889 66.2806 162.898 64.5198 162.693C63.2294 162.542 60.3081 162.118 59.8498 164C59.3744 165.953 61.175 169.111 62.6889 170.185C64.3131 171.336 62.9295 170.297 61.9991 169.912C60.5309 169.304 58.1852 168.521 56.5862 168.931C54.6897 169.418 58.9111 171.107 59.1334 171.165C62.3479 172.007 66.1328 171.433 69.2162 170.294C69.9603 170.019 73.0871 168.518 72.0288 167.242C71.6189 166.748 70.2877 165.913 69.853 166.861C68.7604 169.245 76.8869 168.126 77.76 167.569C78.651 167.001 74.231 165.627 74.8413 168.822C75.5011 172.277 81.0581 172.347 83.0137 170.185C84.9877 168.002 81.1947 167.722 82.3769 169.694C83.7206 171.936 84.7729 169.384 81.3686 168.577C76.2829 167.372 73.0198 169.55 68.1549 170.239C64.8313 170.71 65.1143 172.175 63.0604 174.435C61.046 176.651 59.0941 175.688 56.8781 176.968C54.7131 178.218 56.1305 183.817 55.8698 185.958C55.6196 188.014 51.6444 186.439 50.9611 189.445C50.5544 191.235 51.7611 193.131 53.0572 194.24C53.6551 194.752 55.7035 195.097 56.029 195.766C56.4682 196.668 54.0425 195.629 53.0838 195.848C51.8125 196.138 52.0634 197.99 52.3408 198.926C53.1455 201.641 54.9515 203.703 55.4187 206.581" stroke="#4D4D4D" stroke-width="3" stroke-linecap="round" stroke-linejoin="round"/>
<path d="M56.3739 219.821C55.3983 218.444 54.8764 217.667 54.9411 216.007C54.9832 214.926 55.589 215.529 54.7288 214.645C54.0761 213.975 52.5809 213.88 52.0754 214.918" stroke="#4D4D4D" stroke-width="3" stroke-linecap="round" stroke-linejoin="round"/>
<path d="M69.7468 203.149C71.2731 201.143 73.03 200.512 75.372 199.825C76.6363 199.454 79.0107 199.615 78.8213 199.226" stroke="#4D4D4D" stroke-width="3" stroke-linecap="round" stroke-linejoin="round"/>
<path d="M93.1494 198.245C95.0785 197.858 97.2725 197.176 98.8807 198.735C99.4517 199.289 102.436 200.697 100.791 200.697" stroke="#4D4D4D" stroke-width="3" stroke-linecap="round" stroke-linejoin="round"/>
<path d="M77.8662 209.524C77.8662 209.524 77.8663 209.524 77.8663 209.524" stroke="#4D4D4D" stroke-width="3" stroke-linecap="round" stroke-linejoin="round"/>
<path d="M96.4927 209.033C96.4927 209.033 96.4927 209.033 96.4928 209.033" stroke="#4D4D4D" stroke-width="3" stroke-linecap="round" stroke-linejoin="round"/>
<path d="M88.3733 205.601C88.3733 211.653 92.5911 217.447 94.1311 222.982C94.7867 225.337 93.9386 225.706 91.4777 225.706C89.0818 225.706 87.8579 225.519 86.4629 227.667" stroke="#4D4D4D" stroke-width="3" stroke-linecap="round" stroke-linejoin="round"/>
<path d="M164.045 148.776C160.906 146.507 158.959 146.813 156.096 149.464C153.422 151.941 152.56 156.534 154.964 159.485C158.693 164.063 167.123 162.68 169.889 157.876C171.231 155.545 170.821 157.36 171.705 158.075C173.905 159.855 175.037 159.987 177.247 157.892C179.904 155.373 182.063 145.216 175.51 146.556C174.782 146.706 172.443 148.325 173.544 148.1C175.001 147.802 174.97 146.008 174.609 144.877C173.644 141.861 169.425 140.39 166.768 141.511C164.783 142.348 164.279 144.785 162.682 145.707C161.139 146.598 155.02 151.816 159.759 151.251" stroke="#4D4D4D" stroke-width="2.5" stroke-linecap="round" stroke-linejoin="round"/>
<path d="M125.943 162.99C123.52 162.517 120.666 161.811 120.054 165.101C119.599 167.547 122.099 170.621 124.693 170.212C125.597 170.069 128.576 168.679 129.165 169.268C130.644 170.747 131.536 169.041 132.443 167.601C133.502 165.919 131.899 160.508 129.693 160.018C128.291 159.706 122.764 163.65 123.443 163.99" stroke="#4D4D4D" stroke-width="2.5" stroke-linecap="round" stroke-linejoin="round"/>
<path d="M166.045 70.166C168.786 66.6064 173.724 62.8818 178.553 63.1505C180.704 63.2702 181.756 68.1132 182.445 69.6648C184.887 75.1683 172.586 75.8853 175.051 81.4407C175.519 82.4952 176.922 82.8937 177.831 83.473C179.76 84.7024 180.054 84.1227 180.054 82.1924C180.054 80.6983 176.816 76.8127 178.553 75.7894C183.267 73.0126 182.251 65.656 176.302 65.656C171.729 65.656 165.044 66.4967 165.044 72.4209C165.044 75.3733 167.54 74.5044 168.769 72.922C170.252 71.0117 171.307 68.6626 174.05 68.6626C175.976 68.6626 179.75 67.918 180.054 70.6671C180.106 71.1334 181.112 73.3462 180.944 73.5623C180.248 74.4582 179.552 75.8087 179.054 76.9308C178.219 78.812 175.551 78.5636 175.551 80.9396C175.551 82.5265 175.637 82.8007 176.552 83.9462C176.855 84.3252 178.623 85.3374 178.053 84.1968" stroke="#CD4631" stroke-width="3" stroke-linecap="round" stroke-linejoin="round"/>
<path d="M181.557 91.2122C181.661 95.3806 183.699 92.8282 182.168 91.6019C181.155 90.7899 180.871 93.0126 182.057 93.6063C183.389 94.2733 183.081 90.9103 182.668 91.3235C181.595 92.3983 183.873 95.3 181.557 94.7199" stroke="#CD4631" stroke-width="3" stroke-linecap="round" stroke-linejoin="round"/>
<path d="M154.211 27.0061C154.636 27.5497 155.422 27.6453 155.965 27.2197C156.509 26.7941 156.605 26.0084 156.18 25.4648L154.211 27.0061ZM130.307 26.9844L131.157 27.9009V27.9009L130.307 26.9844ZM125.58 57.067L126.557 56.2866L125.58 57.067ZM130.937 63.6002L131.785 62.6814L130.937 63.6002ZM128.055 64.4522L127.872 63.2157L128.055 64.4522ZM124.316 71.0761L125.516 70.7235L124.316 71.0761ZM127.466 73.937L127.742 72.7178L127.466 73.937ZM120.929 77.3831L119.962 76.5923L120.929 77.3831ZM122.705 85.9653L122.008 87.003L122.705 85.9653ZM122.319 91.0754L122.964 92.1459L122.319 91.0754ZM118.076 98.2877L119.268 98.6627V98.6627L118.076 98.2877ZM118.65 113.803L119.489 112.877L119.489 112.877L118.65 113.803ZM138.097 117.492L138.325 118.721L138.097 117.492ZM144.482 115.342L143.629 114.429V114.429L144.482 115.342ZM144.875 113.126L145.136 111.903L144.875 113.126ZM141.62 118.19L140.374 118.086L141.62 118.19ZM163.208 130.527L163.42 131.759L163.208 130.527ZM175.825 124.449L175.047 123.471V123.471L175.825 124.449ZM184.824 116.197L183.745 115.567L184.824 116.197ZM185.969 117.927L184.799 118.367L185.969 117.927ZM193.94 119.895L193.581 118.698L193.94 119.895ZM203.605 112.934L204.627 113.654L203.605 112.934ZM205.966 109.676L207.008 108.984L205.966 109.676ZM214.673 105.679L215.315 106.751L214.673 105.679ZM216.424 109.397L217.534 108.82L216.424 109.397ZM225.949 118.741L226.253 117.528L225.949 118.741ZM255.253 109.174L254.351 108.309L255.253 109.174ZM256.144 97.8407L255.302 98.7647V98.7647L256.144 97.8407ZM258.763 97.9372L258.853 99.184L258.763 97.9372ZM268.589 94.9048L269.503 95.7567V95.7567L268.589 94.9048ZM271.523 85.8512L270.315 86.1704L271.523 85.8512ZM266.698 80.5454L266.238 81.7082L266.698 80.5454ZM264.956 78.978L264.288 77.9215V77.9215L264.956 78.978ZM267.525 73.4445L266.279 73.3447L267.525 73.4445ZM247.804 46.4746L247.724 45.2271L247.804 46.4746ZM246.381 46.0535L245.373 45.3146L246.381 46.0535ZM247.8 40.7887L249.011 41.0962L247.8 40.7887ZM218.787 15.2865L218.256 14.1553L218.787 15.2865ZM217.096 14.7386L218.306 14.4267L217.096 14.7386ZM209.718 7.43423L209.147 8.54654L209.718 7.43423ZM195.479 7.24559L195.147 6.04052L195.479 7.24559ZM186.923 14.0442L185.846 13.4097L186.923 14.0442ZM185.489 16.0831L186.334 15.1615V15.1615L185.489 16.0831ZM179.422 13.2068L179.524 14.4527L179.422 13.2068ZM169.1 16.9037L168.327 15.9216L169.1 16.9037ZM165.635 20.1192L166.797 19.6582L165.635 20.1192ZM155.655 19.0432L156.539 19.9264V19.9264L155.655 19.0432ZM153.6 23.8337L152.354 23.734L153.6 23.8337ZM154.023 24.9696C153.955 24.2826 153.343 23.7815 152.656 23.8502C151.969 23.919 151.467 24.5316 151.536 25.2185L154.023 24.9696ZM156.18 25.4648C152.625 20.9222 147.718 19.3558 142.823 19.8049C137.975 20.2496 133.132 22.6613 129.458 26.0679L131.157 27.9009C134.493 24.8077 138.836 22.6811 143.05 22.2945C147.218 21.9122 151.249 23.2212 154.211 27.0061L156.18 25.4648ZM129.458 26.0679C125.799 29.4603 122.947 35.2787 121.797 41.2057C120.65 47.1123 121.127 53.4936 124.604 57.8473L126.557 56.2866C123.74 52.7585 123.167 47.2631 124.251 41.6812C125.331 36.1197 127.99 30.8377 131.157 27.9009L129.458 26.0679ZM124.604 57.8473C125.481 58.9461 126.239 60.0184 127.15 61.2037C128.028 62.3448 128.98 63.4951 130.09 64.519L131.785 62.6814C130.83 61.8 129.979 60.7799 129.132 59.6788C128.319 58.6219 127.431 57.3802 126.557 56.2866L124.604 57.8473ZM130.09 64.519C130.073 64.5038 130.009 64.4424 129.946 64.3299C129.879 64.2104 129.805 64.0143 129.817 63.764C129.844 63.2261 130.216 62.9769 130.269 62.9434C130.344 62.8957 130.371 62.8994 130.28 62.9244C130.205 62.9449 130.096 62.968 129.948 62.9914C129.652 63.0386 129.293 63.0736 128.916 63.1076C128.567 63.139 128.166 63.1721 127.872 63.2157L128.239 65.6887C128.44 65.6587 128.74 65.6335 129.139 65.5976C129.51 65.5642 129.948 65.5229 130.34 65.4604C130.537 65.4291 130.745 65.389 130.941 65.335C131.121 65.2856 131.372 65.2034 131.606 65.0554C131.817 64.9217 132.281 64.5579 132.314 63.8879C132.346 63.2579 131.965 62.8469 131.785 62.6814L130.09 64.519ZM127.872 63.2157C123.854 63.8123 122.127 68.0565 123.117 71.4287L125.516 70.7235C124.83 68.3887 126.124 66.0027 128.239 65.6887L127.872 63.2157ZM123.117 71.4287C123.699 73.4103 125.318 74.733 127.19 75.1563L127.742 72.7178C126.649 72.4706 125.813 71.7357 125.516 70.7235L123.117 71.4287ZM127.19 75.1563C127.398 75.2035 127.51 75.2456 127.545 75.2621C127.565 75.2712 127.524 75.2552 127.458 75.2017C127.411 75.1633 127.21 74.9941 127.12 74.6668C127.005 74.246 127.146 73.8603 127.348 73.6227C127.504 73.4388 127.665 73.3737 127.681 73.3669C127.727 73.3475 127.67 73.3776 127.413 73.4033L127.661 75.891C127.992 75.8579 128.347 75.7987 128.65 75.6712C128.794 75.6104 129.044 75.4866 129.253 75.2408C129.507 74.9412 129.665 74.4904 129.531 74.0026C129.422 73.6083 129.169 73.3703 129.037 73.263C128.887 73.1404 128.729 73.055 128.602 72.9959C128.345 72.876 128.045 72.7862 127.742 72.7178L127.19 75.1563ZM127.413 73.4033C126.082 73.5364 124.744 73.6514 123.51 74.0667C122.21 74.5041 121.052 75.2585 119.962 76.5923L121.897 78.1739C122.697 77.1954 123.464 76.7197 124.306 76.4362C125.214 76.1305 126.235 76.0337 127.661 75.891L127.413 73.4033ZM119.962 76.5923C118.389 78.5166 117.814 80.5094 118.323 82.4402C118.812 84.299 120.234 85.8114 122.008 87.003L123.402 84.9275C121.87 83.8983 121.01 82.8264 120.74 81.8026C120.49 80.851 120.68 79.6631 121.897 78.1739L119.962 76.5923ZM122.008 87.003C122.814 87.5447 123.283 87.9478 123.53 88.2458C123.766 88.5295 123.68 88.5662 123.698 88.4566C123.706 88.4103 123.704 88.5381 123.334 88.865C122.981 89.1767 122.442 89.5417 121.674 90.005L122.964 92.1459C123.751 91.6714 124.456 91.2094 124.989 90.738C125.505 90.2816 126.032 89.6701 126.165 88.8613C126.308 87.9891 125.945 87.2402 125.454 86.6483C124.974 86.0708 124.267 85.5083 123.402 84.9275L122.008 87.003ZM121.674 90.005C120.171 90.9114 119.186 92.2575 118.478 93.659C117.777 95.0458 117.303 96.5809 116.884 97.9128L119.268 98.6627C119.702 97.284 120.117 95.956 120.709 94.7858C121.293 93.6303 122.003 92.7255 122.964 92.1459L121.674 90.005ZM116.884 97.9128C116.15 100.243 115.208 103.317 115.005 106.31C114.803 109.303 115.325 112.479 117.811 114.73L119.489 112.877C117.823 111.368 117.32 109.13 117.499 106.477C117.679 103.824 118.526 101.021 119.268 98.6627L116.884 97.9128ZM117.811 114.73C123.458 119.845 131.755 119.942 138.325 118.721L137.87 116.263C131.508 117.446 124.239 117.178 119.489 112.877L117.811 114.73ZM138.325 118.721C139.293 118.541 140.61 118.371 141.781 118.065C142.995 117.748 144.28 117.241 145.335 116.255L143.629 114.429C143.005 115.012 142.172 115.379 141.151 115.646C140.087 115.923 139.05 116.044 137.87 116.263L138.325 118.721ZM145.335 116.255C145.629 115.981 146.182 115.359 146.479 114.676C146.619 114.354 146.81 113.776 146.614 113.153C146.376 112.398 145.737 112.031 145.136 111.903L144.613 114.348C144.646 114.355 144.581 114.348 144.483 114.272C144.372 114.186 144.277 114.056 144.229 113.904C144.187 113.769 144.198 113.67 144.202 113.645C144.206 113.62 144.208 113.631 144.186 113.68C144.141 113.784 144.051 113.931 143.926 114.093C143.805 114.251 143.688 114.374 143.629 114.429L145.335 116.255ZM145.136 111.903C144.131 111.688 143.263 112 142.608 112.552C141.998 113.066 141.579 113.774 141.288 114.429C140.701 115.747 140.441 117.284 140.374 118.086L142.865 118.294C142.918 117.665 143.135 116.425 143.571 115.445C143.791 114.952 144.02 114.631 144.217 114.464C144.369 114.336 144.468 114.317 144.613 114.348L145.136 111.903ZM140.374 118.086C139.883 123.956 144.078 127.723 148.863 129.782C153.664 131.847 159.518 132.433 163.42 131.759L162.996 129.295C159.596 129.883 154.232 129.369 149.852 127.485C145.456 125.594 142.508 122.562 142.865 118.294L140.374 118.086ZM163.42 131.759C168.434 130.892 172.774 128.478 176.604 125.426L175.047 123.471C171.426 126.356 167.468 128.522 162.996 129.295L163.42 131.759ZM176.604 125.426C177.319 124.857 178.107 124.271 178.946 123.641C179.776 123.016 180.648 122.355 181.492 121.657C183.167 120.273 184.82 118.682 185.904 116.827L183.745 115.567C182.887 117.037 181.506 118.404 179.9 119.73C179.104 120.388 178.273 121.02 177.444 121.642C176.624 122.259 175.797 122.873 175.047 123.471L176.604 125.426ZM185.904 116.827C186.009 116.647 186.067 116.567 186.088 116.542C186.097 116.53 186.075 116.559 186.023 116.602C185.978 116.639 185.843 116.742 185.626 116.797C185.372 116.861 185.073 116.84 184.8 116.693C184.562 116.564 184.439 116.391 184.391 116.312C184.307 116.177 184.3 116.086 184.322 116.184C184.364 116.374 184.38 116.563 184.457 117.022C184.522 117.405 184.619 117.889 184.799 118.367L187.139 117.486C187.044 117.233 186.978 116.935 186.922 116.606C186.88 116.352 186.82 115.9 186.762 115.64C186.734 115.513 186.671 115.244 186.516 114.995C186.432 114.859 186.27 114.645 185.989 114.493C185.672 114.322 185.325 114.295 185.016 114.373C184.535 114.494 184.246 114.846 184.153 114.959C184.01 115.134 183.875 115.345 183.745 115.567L185.904 116.827ZM184.799 118.367C185.206 119.45 185.834 120.276 186.643 120.851C187.442 121.418 188.347 121.69 189.237 121.788C190.977 121.98 192.849 121.528 194.299 121.092L193.581 118.698C192.171 119.122 190.715 119.436 189.513 119.303C188.932 119.239 188.462 119.076 188.091 118.812C187.729 118.555 187.389 118.152 187.139 117.486L184.799 118.367ZM194.299 121.092C198.432 119.85 202.13 117.197 204.627 113.654L202.583 112.214C200.41 115.298 197.18 117.616 193.581 118.698L194.299 121.092ZM204.627 113.654C204.749 113.48 204.958 113.125 205.153 112.796C205.368 112.432 205.617 112.014 205.861 111.627C206.114 111.227 206.33 110.914 206.478 110.737C206.57 110.629 206.556 110.669 206.453 110.733C206.407 110.761 206.197 110.889 205.878 110.885C205.457 110.879 205.113 110.652 204.924 110.367L207.008 108.984C206.782 108.645 206.391 108.391 205.913 108.385C205.536 108.38 205.259 108.532 205.137 108.608C204.883 108.765 204.684 108.988 204.567 109.127C204.3 109.444 204.007 109.883 203.749 110.291C203.482 110.713 203.216 111.161 203.002 111.522C202.893 111.705 202.8 111.863 202.723 111.991C202.685 112.054 202.653 112.106 202.627 112.147C202.614 112.167 202.604 112.183 202.596 112.196C202.592 112.202 202.589 112.206 202.587 112.21C202.584 112.213 202.583 112.215 202.583 112.214L204.627 113.654ZM204.924 110.367C205.874 111.799 206.987 112.78 208.366 112.813C209.69 112.846 210.715 111.974 211.423 111.222C212.153 110.444 212.895 109.393 213.518 108.59C214.205 107.706 214.78 107.072 215.315 106.751L214.031 104.607C213.048 105.196 212.22 106.186 211.544 107.057C210.805 108.01 210.225 108.847 209.602 109.51C208.955 110.197 208.595 110.318 208.428 110.314C208.315 110.311 207.832 110.227 207.008 108.984L204.924 110.367ZM215.315 106.751C215.052 106.909 214.744 106.946 214.469 106.877C214.238 106.82 214.099 106.705 214.053 106.665C213.97 106.591 213.968 106.556 214.033 106.671C214.146 106.869 214.293 107.211 214.459 107.654C214.621 108.083 214.776 108.538 214.918 108.946C215.039 109.295 215.189 109.731 215.315 109.974L217.534 108.82C217.537 108.826 217.513 108.777 217.457 108.627C217.408 108.494 217.349 108.325 217.28 108.126C217.145 107.736 216.975 107.24 216.799 106.772C216.628 106.317 216.424 105.816 216.206 105.434C216.106 105.259 215.944 104.999 215.711 104.792C215.59 104.686 215.378 104.527 215.077 104.452C214.732 104.366 214.357 104.412 214.031 104.607L215.315 106.751ZM215.315 109.974C217.526 114.227 220.056 118.554 225.645 119.954L226.253 117.528C221.846 116.424 219.754 113.092 217.534 108.82L215.315 109.974ZM225.645 119.954C236.876 122.766 248.519 117.994 256.154 110.04L254.351 108.309C247.184 115.775 236.42 120.075 226.253 117.528L225.645 119.954ZM256.154 110.04C257.811 108.314 259.198 106.16 259.581 103.842C259.978 101.436 259.265 98.9937 256.986 96.9167L255.302 98.7647C256.97 100.285 257.37 101.886 257.114 103.436C256.844 105.073 255.812 106.787 254.351 108.309L256.154 110.04ZM256.986 96.9167C256.959 96.8913 256.977 96.9036 257.011 96.9496C257.031 96.9758 257.158 97.1432 257.197 97.42C257.25 97.7932 257.118 98.1972 256.807 98.47C256.576 98.6723 256.343 98.7154 256.295 98.7242C256.181 98.745 256.14 98.7277 256.264 98.7417C256.355 98.752 256.481 98.7728 256.643 98.8046C256.982 98.8711 257.331 98.9552 257.717 99.0387C257.895 99.0774 258.08 99.1155 258.247 99.1429C258.382 99.1648 258.621 99.2009 258.853 99.184L258.672 96.6905C258.764 96.6838 258.786 96.6974 258.652 96.6754C258.55 96.6589 258.416 96.6318 258.247 96.5954C257.94 96.5286 257.491 96.4229 257.126 96.3513C256.936 96.3141 256.734 96.2788 256.546 96.2575C256.39 96.2398 256.119 96.2152 255.848 96.2645C255.722 96.2876 255.429 96.3539 255.16 96.5899C254.81 96.8963 254.661 97.3443 254.722 97.7733C254.769 98.1059 254.929 98.341 255.009 98.448C255.104 98.5749 255.21 98.6813 255.302 98.7647L256.986 96.9167ZM258.853 99.184C260.395 99.0717 262.382 98.9132 264.281 98.4591C266.162 98.0093 268.129 97.2313 269.503 95.7567L267.674 94.0529C266.796 94.9963 265.397 95.6219 263.701 96.0275C262.023 96.4288 260.223 96.5775 258.672 96.6905L258.853 99.184ZM269.503 95.7567C270.823 94.3404 271.943 92.8967 272.57 91.2288C273.211 89.5207 273.298 87.6787 272.732 85.532L270.315 86.1704C270.765 87.8775 270.668 89.1844 270.23 90.3507C269.777 91.5571 268.922 92.7133 267.674 94.0529L269.503 95.7567ZM272.732 85.532C272.333 84.0187 271.678 82.7532 270.721 81.7171C269.766 80.6848 268.566 79.9386 267.157 79.3826L266.238 81.7082C267.386 82.1613 268.243 82.7201 268.885 83.4146C269.523 84.1053 270.003 84.9882 270.315 86.1704L272.732 85.532ZM267.157 79.3826C266.784 79.2356 266.345 79.1276 266.024 79.0471C265.648 78.9528 265.412 78.8906 265.264 78.8297C265.189 78.7989 265.233 78.8057 265.314 78.8764C265.409 78.9606 265.629 79.2097 265.625 79.6126C265.621 79.9692 265.44 80.1629 265.436 80.167C265.423 80.182 265.462 80.1364 265.623 80.0345L264.288 77.9215C264.038 78.0799 263.788 78.2645 263.587 78.4851C263.397 78.6946 263.131 79.0691 263.125 79.5867C263.119 80.1507 263.421 80.5412 263.66 80.7524C263.885 80.95 264.136 81.0692 264.311 81.1415C264.664 81.2868 265.102 81.3936 265.415 81.4721C265.783 81.5644 266.049 81.6333 266.238 81.7082L267.157 79.3826ZM265.623 80.0345C266.761 79.3148 267.497 78.1236 267.961 76.9875C268.433 75.8308 268.687 74.5803 268.771 73.5442L266.279 73.3447C266.213 74.1638 266.008 75.1577 265.647 76.0428C265.277 76.9485 264.802 77.5965 264.288 77.9215L265.623 80.0345ZM268.771 73.5442C269.069 69.8407 266.472 67.4594 263.596 66.3621L262.704 68.698C265.029 69.5851 266.452 71.1923 266.279 73.3447L268.771 73.5442ZM263.596 66.3621C263.1 66.1729 262.48 66.115 261.971 66.0941C261.422 66.0715 260.838 66.0876 260.331 66.115C259.821 66.1426 259.369 66.1828 259.082 66.2126C258.942 66.227 258.828 66.2403 258.762 66.2496C258.753 66.2508 258.712 66.2563 258.669 66.265C258.658 66.2673 258.625 66.2739 258.584 66.2849C258.566 66.2899 258.522 66.3021 258.468 66.3226C258.441 66.3332 258.376 66.3618 258.338 66.3803C258.281 66.4114 258.137 66.509 258.055 66.5802C257.919 66.7296 257.688 67.2261 257.662 67.5741C257.739 67.9316 258.066 68.4149 258.242 68.5493C258.345 68.6079 258.519 68.6798 258.586 68.6996C258.629 68.7104 258.703 68.725 258.733 68.7297C258.831 68.7436 258.911 68.7422 258.916 68.7422C258.997 68.7419 259.093 68.7313 259.101 68.7305L258.853 66.2428C258.785 66.2496 258.838 66.2424 258.907 66.2421C258.91 66.2421 258.989 66.2407 259.086 66.2545C259.117 66.2592 259.19 66.2738 259.233 66.2845C259.3 66.3043 259.473 66.3762 259.577 66.4347C259.753 66.5691 260.08 67.0523 260.157 67.4098C260.131 67.7578 259.9 68.2542 259.764 68.4036C259.681 68.4747 259.538 68.5723 259.481 68.6033C259.443 68.6218 259.379 68.6503 259.351 68.6609C259.298 68.6812 259.254 68.6932 259.236 68.6981C259.197 68.7089 259.166 68.7151 259.156 68.7169C259.121 68.724 259.095 68.7272 259.108 68.7255C259.128 68.7226 259.206 68.713 259.338 68.6994C259.593 68.6731 260.003 68.6365 260.465 68.6115C260.93 68.5863 261.428 68.574 261.867 68.592C262.344 68.6117 262.614 68.6636 262.704 68.698L263.596 66.3621ZM259.101 68.7305C259.764 68.6641 260.261 68.294 260.599 67.9332C260.939 67.5694 261.211 67.1176 261.431 66.6639C261.874 65.7527 262.22 64.6002 262.483 63.4737C262.748 62.3341 262.942 61.1581 263.061 60.1666C263.174 59.2151 263.233 58.3197 263.18 57.7938L260.693 58.0427C260.715 58.2679 260.692 58.919 260.578 59.871C260.469 60.7831 260.29 61.8677 260.048 62.9072C259.803 63.96 259.506 64.9054 259.182 65.5724C259.02 65.9078 258.877 66.1152 258.774 66.2257C258.667 66.3394 258.691 66.259 258.853 66.2428L259.101 68.7305ZM263.18 57.7938C262.442 50.3815 255.109 44.7538 247.724 45.2271L247.883 47.7221C254.062 47.3261 260.101 52.1026 260.693 58.0427L263.18 57.7938ZM247.724 45.2271C247.345 45.2514 246.986 45.324 246.724 45.3806C246.575 45.4129 246.485 45.4337 246.382 45.4551C246.336 45.4645 246.301 45.4713 246.274 45.476C246.26 45.4782 246.25 45.4798 246.243 45.4808C246.235 45.4819 246.232 45.4822 246.233 45.4821C246.233 45.4821 246.239 45.4815 246.25 45.4811C246.26 45.4807 246.279 45.4804 246.304 45.4816C246.346 45.4837 246.45 45.4918 246.581 45.5387C246.72 45.5881 246.92 45.6927 247.087 45.9035C247.259 46.1213 247.323 46.3592 247.334 46.5468C247.343 46.7176 247.311 46.843 247.294 46.8956C247.285 46.9261 247.276 46.9482 247.271 46.9608C247.266 46.9735 247.262 46.9803 247.262 46.9804C247.262 46.9807 247.264 46.9764 247.27 46.9672C247.275 46.9581 247.283 46.9454 247.293 46.9287C247.315 46.8949 247.346 46.85 247.388 46.7923L245.373 45.3146C245.249 45.4828 245.131 45.6592 245.04 45.8354C244.971 45.9698 244.815 46.2911 244.838 46.6918C244.852 46.929 244.929 47.2072 245.127 47.4569C245.32 47.6995 245.556 47.8275 245.74 47.8933C246.059 48.0071 246.357 47.9817 246.47 47.9708C246.728 47.9461 247.067 47.864 247.251 47.8242C247.494 47.7716 247.701 47.7337 247.883 47.7221L247.724 45.2271ZM247.388 46.7923C248.055 45.883 248.35 44.7084 248.537 43.7345C248.633 43.233 248.712 42.7183 248.784 42.2744C248.859 41.813 248.928 41.423 249.011 41.0962L246.588 40.4811C246.475 40.9252 246.391 41.4121 246.316 41.8741C246.238 42.3537 246.169 42.8089 246.082 43.2642C245.902 44.2041 245.683 44.891 245.373 45.3146L247.388 46.7923ZM249.011 41.0962C251.369 31.8212 247.501 24.022 240.458 18.2493L238.873 20.1833C245.381 25.5177 248.645 32.3897 246.588 40.4811L249.011 41.0962ZM240.458 18.2493C234.658 13.4959 225.555 10.724 218.256 14.1553L219.318 16.4178C225.442 13.5392 233.519 15.795 238.873 20.1833L240.458 18.2493ZM218.256 14.1553C218.092 14.2321 217.963 14.3319 217.902 14.3804C217.824 14.4429 217.746 14.5121 217.673 14.5795C217.527 14.7152 217.363 14.8821 217.196 15.0616C216.86 15.4218 216.47 15.8747 216.122 16.3198C215.787 16.7469 215.437 17.2341 215.228 17.6469C215.173 17.7559 215.114 17.8846 215.069 18.0238C215.028 18.1478 214.969 18.3634 214.98 18.6206C214.993 18.8994 215.102 19.3452 215.525 19.6594C215.907 19.9429 216.313 19.9408 216.512 19.9209L216.264 17.4332C216.357 17.424 216.685 17.4064 217.015 17.6512C217.386 17.9268 217.469 18.3108 217.478 18.5079C217.486 18.6833 217.446 18.7973 217.444 18.8029C217.437 18.8235 217.437 18.8169 217.457 18.777C217.55 18.5939 217.772 18.2663 218.09 17.8606C218.393 17.4729 218.736 17.0749 219.023 16.767C219.168 16.6123 219.288 16.4909 219.376 16.409C219.421 16.3675 219.447 16.3456 219.457 16.3379C219.484 16.3161 219.428 16.3664 219.318 16.4178L218.256 14.1553ZM216.512 19.9209C217.45 19.827 217.972 19.1631 218.217 18.605C218.45 18.0733 218.524 17.4677 218.544 16.9678C218.586 15.9539 218.423 14.8795 218.306 14.4267L215.885 15.0505C215.945 15.2847 216.078 16.1144 216.047 16.8656C216.031 17.2482 215.976 17.4903 215.927 17.6018C215.89 17.6871 215.976 17.4621 216.264 17.4332L216.512 19.9209ZM218.306 14.4267C217.804 12.4725 216.443 10.7985 214.965 9.47842C213.47 8.14255 211.737 7.06465 210.289 6.32192L209.147 8.54654C210.462 9.22121 212.004 10.1861 213.3 11.3434C214.613 12.5164 215.56 13.786 215.885 15.0505L218.306 14.4267ZM210.289 6.32192C207.997 5.14601 205.273 4.79538 202.644 4.86477C200.002 4.93451 197.357 5.4312 195.147 6.04052L195.81 8.45066C197.879 7.88026 200.318 7.4271 202.709 7.36401C205.112 7.30057 207.369 7.63411 209.147 8.54654L210.289 6.32192ZM195.147 6.04052C191.016 7.17963 187.929 9.87623 185.846 13.4097L188 14.6787C189.807 11.6128 192.401 9.39082 195.81 8.45066L195.147 6.04052ZM185.846 13.4097C185.181 14.5391 185.116 15.6387 185.064 15.9612C185.046 16.0743 185.048 15.9887 185.112 15.8596C185.151 15.7793 185.245 15.6194 185.433 15.4792C185.642 15.3233 185.885 15.2535 186.111 15.2542C186.31 15.2548 186.451 15.3089 186.506 15.3328C186.565 15.3585 186.593 15.3794 186.581 15.3717C186.556 15.354 186.482 15.297 186.334 15.1615L184.644 17.0047C184.816 17.1619 184.994 17.3152 185.169 17.4349C185.293 17.5202 185.64 17.753 186.103 17.7543C186.386 17.7551 186.677 17.6696 186.927 17.483C187.156 17.3121 187.283 17.1067 187.352 16.9673C187.475 16.7198 187.516 16.461 187.533 16.3554C187.621 15.8029 187.635 15.2979 188 14.6787L185.846 13.4097ZM186.334 15.1615C186.086 14.9337 185.856 14.7145 185.631 14.4995C185.409 14.2875 185.186 14.0746 184.969 13.8748C184.534 13.4756 184.072 13.0848 183.539 12.7632C182.408 12.0803 181.13 11.8125 179.321 11.9609L179.524 14.4527C180.951 14.3356 181.672 14.5568 182.247 14.9039C182.568 15.0973 182.886 15.3567 183.277 15.7163C183.473 15.8959 183.675 16.0895 183.903 16.3078C184.129 16.5231 184.375 16.7579 184.644 17.0047L186.334 15.1615ZM179.321 11.9609C175.349 12.2868 171.608 13.3384 168.327 15.9216L169.873 17.8857C172.65 15.6989 175.868 14.7526 179.524 14.4527L179.321 11.9609ZM168.327 15.9216C167.371 16.6745 166.527 17.808 165.948 19.0098C165.372 20.2049 164.988 21.6133 165.12 22.937L167.607 22.6881C167.536 21.9746 167.745 21.0392 168.2 20.0944C168.652 19.1564 169.278 18.354 169.873 17.8857L168.327 15.9216ZM165.12 22.937C165.119 22.9264 165.113 22.8674 165.114 22.7919C165.116 22.7439 165.131 22.6045 165.15 22.5142C165.224 22.3007 165.752 21.7227 166.296 21.5647C166.752 21.6244 167.278 21.96 167.384 22.0904C167.425 22.1525 167.481 22.2532 167.499 22.29C167.527 22.3508 167.544 22.4005 167.547 22.4112C167.559 22.4444 167.566 22.4708 167.567 22.4754C167.57 22.485 167.572 22.4924 167.573 22.4958C167.575 22.5066 167.577 22.5132 167.575 22.5066C167.573 22.4982 167.57 22.4822 167.563 22.4554C167.552 22.4046 167.534 22.3255 167.511 22.2284C167.466 22.0336 167.401 21.7609 167.327 21.4616C167.185 20.8932 166.984 20.1305 166.797 19.6582L164.473 20.5801C164.588 20.8715 164.753 21.4711 164.901 22.0662C164.971 22.3487 165.032 22.6081 165.076 22.796C165.098 22.8903 165.115 22.9653 165.128 23.0187C165.133 23.044 165.139 23.0677 165.143 23.085C165.145 23.0913 165.148 23.1071 165.153 23.1236C165.154 23.1284 165.156 23.137 165.159 23.1475C165.161 23.1531 165.168 23.1802 165.179 23.2139C165.183 23.2248 165.2 23.2747 165.228 23.3356C165.246 23.3724 165.302 23.4732 165.343 23.5354C165.449 23.6658 165.975 24.0013 166.431 24.0611C166.975 23.9031 167.504 23.3251 167.577 23.1116C167.596 23.0212 167.612 22.8817 167.613 22.8337C167.615 22.7581 167.608 22.6989 167.607 22.6881L165.12 22.937ZM166.797 19.6582C165.773 17.0752 163.523 15.8446 161.195 15.7035C158.912 15.565 156.474 16.4549 154.771 18.1599L156.539 19.9264C157.731 18.7328 159.468 18.1035 161.043 18.199C162.574 18.2919 163.866 19.0487 164.473 20.5801L166.797 19.6582ZM154.771 18.1599C153.294 19.6387 152.51 21.8015 152.354 23.734L154.846 23.9334C154.966 22.4429 155.577 20.8899 156.539 19.9264L154.771 18.1599ZM152.354 23.734C152.322 24.1323 152.19 24.9627 152.066 25.3486C152.03 25.4601 152.033 25.4101 152.103 25.3091C152.128 25.273 152.279 25.0527 152.596 24.9242C152.779 24.8499 153.008 24.8116 153.255 24.8561C153.496 24.8994 153.677 25.0071 153.796 25.1053C154.005 25.2771 154.081 25.4642 154.089 25.4821C154.108 25.5267 154.109 25.541 154.099 25.5005C154.08 25.4214 154.052 25.2574 154.023 24.9696L151.536 25.2185C151.569 25.5516 151.611 25.842 151.667 26.0791C151.695 26.1966 151.734 26.3344 151.793 26.4715C151.841 26.582 151.958 26.8306 152.208 27.0365C152.348 27.1518 152.55 27.2696 152.812 27.3167C153.08 27.365 153.33 27.3241 153.534 27.2411C153.894 27.0955 154.087 26.8341 154.155 26.7366C154.311 26.5128 154.399 26.2588 154.446 26.1134C154.652 25.472 154.806 24.4303 154.846 23.9334L152.354 23.734Z" fill="#4D4D4D"/>
<path d="M194.478 41.1041C193.743 36.9002 198.383 36.4356 201.706 35.592C204.343 34.9223 206.856 34.3653 209.378 35.8147C211.019 36.7578 213.327 39.1745 213.465 41.1041C213.977 48.2839 207.694 52.6294 200.788 52.6294C197.896 52.6294 198.006 57.8357 197.981 59.6449C197.94 62.5673 197.253 65.3929 197.591 68.3306C197.685 69.1389 198.164 73.5972 199.482 72.0889C201.665 69.5905 201.984 64.2766 201.984 61.1482C201.984 58.1692 201.152 55.5708 204.235 54.3833C206.963 53.3327 210.279 52.1259 212.102 49.6228C214.724 46.0252 215.237 41.0193 212.464 37.3737C210.12 34.293 203.564 34.1551 199.982 34.0887C195.287 34.0016 193.131 36.7058 190.753 40.603C189.329 42.9357 190.048 46.8624 193.477 46.0038C197.142 45.0862 199.692 42.9537 202.262 40.3803C203.637 39.0034 207.454 39.9456 208.989 40.7144C210.817 41.6294 209.727 44.7884 209.211 46.1151C207.15 51.4232 200.297 51.2463 198.592 56.0258C197.305 59.6364 197.48 63.3582 197.48 67.1335C197.48 68.2995 196.723 72.0641 198.981 71.0588C203.288 69.142 201.27 60.9917 201.483 57.1393C201.606 54.9319 204.52 54.6165 205.987 53.8822C207.761 52.9938 210.218 50.3901 211.102 48.6206C212.301 46.2194 212.52 42.5585 210.74 40.3803C208.522 37.6654 204.754 39.3283 202.484 37.5964C200.513 36.0921 196.369 41.2143 194.978 42.6074C194.431 43.1551 193.82 43.6356 193.227 44.1107C192.958 44.3264 192.173 45.8924 191.976 45.8924C191.359 45.8924 192.702 44.8666 193.199 44.5005C194.876 43.266 196.449 41.8572 197.675 40.1576C199.04 38.2651 201.251 39.0997 203.485 39.0997C204.768 39.0997 207.666 38.5425 208.739 39.3781C210.365 40.6443 210.957 41.7836 208.489 42.6074" stroke="#CD4631" stroke-width="3" stroke-linecap="round" stroke-linejoin="round"/>
<path d="M199.982 80.19C192.685 81.8343 203.228 84.8246 201.872 80.5798C201.412 79.1393 199.353 79.6587 200.009 81.1922C200.298 81.8677 202.93 83.0116 200.482 82.1945" stroke="#CD4631" stroke-width="3" stroke-linecap="round" stroke-linejoin="round"/>
<path d="M230.135 96.0496C233.569 96.0496 238.022 95.2481 241.36 96.2231C243.31 96.7926 244.342 98.0313 245.742 99.3455C247.4 100.902 249.383 102.978 249.137 105.434C248.838 108.431 244.978 109.905 242.572 110.708C239.139 111.854 234.573 111.643 231.001 111.107C228.186 110.684 223.204 109.796 222.098 106.596C221.199 103.997 223.138 102.606 225.354 101.982C228.782 101.017 232.37 100.259 235.886 99.7271C237.59 99.4692 241.461 98.3291 243.161 99.4843C243.874 99.9685 244.591 102.083 244.755 102.902C245.017 104.217 244.319 104.946 243.213 105.556C240.789 106.891 237.837 107.509 235.176 106.51C231.647 105.184 236.141 102.135 238.103 102C240.416 101.84 241.301 102.763 242.122 104.931C242.702 106.463 242.685 107.424 240.754 107.585C238.455 107.777 236.062 107.578 233.877 106.839C230.475 105.689 226.059 103.678 223.726 100.803C222.639 99.4629 222.652 97.6707 222.652 96.0496C222.652 93.3611 222.675 93.5789 225.736 93.5517C231.028 93.5045 236.308 93.2394 241.602 93.2394C243.26 93.2394 244.797 93.0703 246.279 93.9333C247.3 94.5274 247.339 94.782 247.284 95.9455C247.085 100.133 242.446 101.203 239.177 102.294" stroke="#4D4D4D" stroke-width="1.5" stroke-linecap="round"/>
<path d="M137.533 57.6438C137.047 55.1502 135.485 52.8623 134.553 50.4623C133.743 48.3744 133.479 45.6642 133.479 43.4195C133.479 39.1271 134.082 34.4906 137.914 31.7277C140.849 29.6113 146.243 28.5856 149.138 31.4849C151.953 34.3039 151.526 38.7433 152.343 42.344C153.193 46.0918 151.313 51.9226 147.198 53.0816C145.858 53.4592 142.428 54.309 141.43 52.9255C139.983 50.9189 139.505 47.9065 138.849 45.5705C138.145 43.0613 135.657 37.0531 139.698 35.8389C144.717 34.331 146.815 42.6318 147.129 46.0215C147.313 48.0092 147.466 49.7621 146.124 51.3296C145.565 51.9829 143.125 53.7968 142.366 52.6133C141.311 50.9708 140.542 43.0892 142.833 42.9685C143.373 42.94 144.937 42.7335 145.258 43.2807C145.838 44.2668 145.133 45.8271 144.219 46.2297C142.423 47.0211 141.898 46.9071 141.898 44.998C141.898 43.2593 142.65 41.9432 144.635 42.795C145.612 43.2145 145.725 45.1348 145.882 45.9868C146.377 48.672 146.263 51.4224 146.263 54.1398C146.263 58.3361 143.128 60.6368 140.339 63.5764" stroke="#4D4D4D" stroke-width="1.5" stroke-linecap="round"/>
<path d="M139.402 109.788C135.714 109.788 132.474 110.09 129.425 107.845C127.34 106.31 126.619 104.848 126.619 102.225C126.619 100.363 126.829 98.8648 128.178 97.4373C129.431 96.1108 130.573 96.0751 132.335 95.6679C132.985 95.5178 137.583 94.2519 138.085 95.4251C138.82 97.1409 137.845 100.068 136.907 101.531C135.868 103.153 134.951 104.749 133.166 105.66C132.769 105.862 129.79 107.003 129.737 106.041C129.637 104.241 129.896 102.898 130.984 101.427C131.638 100.543 134.106 100.998 135.037 101.045C138.409 101.219 136.904 109.614 133.235 105.798C132.448 104.979 132.323 103.343 132.889 102.398C134.951 98.9562 138.617 97.4681 142.208 96.3618" stroke="#4D4D4D" stroke-width="1.5" stroke-linecap="round"/>
<path d="M250.713 65.4499C252.364 64.4415 253.831 63.1692 253.831 61.0785C253.831 59.7412 254.163 58.413 253.034 57.4877C252.205 56.8082 245.841 54.2721 245.725 56.7071C245.644 58.3991 245.725 60.1131 245.725 61.8071C245.725 63.6502 247.682 63.2869 249.085 63.2642C251.69 63.2221 252.01 61.2688 251.008 58.9275C250.468 57.6678 248.645 56.7818 247.942 58.7193C247.575 59.7304 252.62 58.8928 249.154 58.8928" stroke="#4D4D4D" stroke-width="1.5" stroke-linecap="round"/>
<path d="M260.352 89.2707C261.04 89.2707 262.976 89.0344 263.207 90.0778C263.412 91.0013 263.078 91.5412 262.411 92.0605C260.95 93.1992 257.107 92.6457 257.965 90.1475C258.575 88.3701 260.375 87.1892 262.242 87.1186C262.692 87.1016 263.25 86.9619 263.486 87.3876C263.715 87.8 263.594 88.6155 263.396 89.0117C262.828 90.1511 261.762 91.1294 260.571 91.2833C258.903 91.4988 254.98 92.268 254.98 89.8087" stroke="#4D4D4D" stroke-width="1.5" stroke-linecap="round"/>
</svg>
