<svg width="128" height="34" viewBox="0 0 128 34" fill="none" xmlns="http://www.w3.org/2000/svg">
<path d="M17.2377 0C13.8283 0 10.4956 0.99702 7.66086 2.86496C4.82623 4.733 2.61685 7.38807 1.3121 10.4944C0.00745117 13.6007 -0.333904 17.0189 0.331257 20.3165C0.996318 23.6142 2.63801 26.6433 5.04876 29.0208C7.4595 31.3983 10.531 33.0174 13.8748 33.6733C17.2185 34.3293 20.6844 33.9927 23.8341 32.7059C26.9839 31.4192 29.6761 29.2403 31.5702 26.4447C33.4643 23.649 34.4752 20.3623 34.4752 17C34.4752 12.4913 32.6591 8.16731 29.4265 4.97922C26.1937 1.79103 21.8094 0 17.2377 0ZM25.1479 24.5164C25.0746 24.6365 24.9777 24.741 24.8631 24.8239C24.7484 24.9068 24.6181 24.9664 24.4798 24.9992C24.3416 25.032 24.1981 25.0374 24.0578 25.0151C23.9174 24.9927 23.7829 24.9432 23.6621 24.8691C19.6176 22.427 14.5275 21.8843 8.5294 23.2275C8.39292 23.2596 8.25142 23.2647 8.11294 23.2423C7.97455 23.2201 7.84188 23.1709 7.72294 23.0978C7.60391 23.0245 7.50082 22.9288 7.41959 22.8159C7.33836 22.7031 7.2808 22.5755 7.25002 22.4405C7.21722 22.3052 7.21201 22.1647 7.23437 22.0272C7.25683 21.8897 7.30648 21.7581 7.38059 21.6395C7.45469 21.5211 7.55186 21.4183 7.66628 21.3369C7.7808 21.2555 7.91047 21.1971 8.04785 21.1652C14.61 19.6863 20.2504 20.324 24.7903 23.0646C25.0325 23.2107 25.2062 23.4455 25.2732 23.7176C25.3402 23.9897 25.2952 24.2769 25.1479 24.5164ZM27.2528 19.8898C27.0605 20.1815 26.762 20.3891 26.419 20.4699C26.0759 20.5507 25.7145 20.4985 25.4093 20.324C20.1786 17.4464 14.0035 16.734 8.24049 18.3431C8.06119 18.4418 7.86173 18.4995 7.65686 18.5122C7.45188 18.5249 7.24671 18.4922 7.05627 18.4164C6.86584 18.3407 6.69507 18.224 6.55638 18.0747C6.41769 17.9254 6.3146 17.7473 6.25473 17.5537C6.19486 17.36 6.17972 17.1555 6.21041 16.9553C6.24109 16.7551 6.3168 16.5643 6.43203 16.3967C6.54725 16.2291 6.69908 16.0891 6.87627 15.9868C7.05357 15.8847 7.25172 15.8228 7.4563 15.8061C10.673 14.8929 14.0423 14.6228 17.3663 15.012C20.6903 15.401 23.902 16.4414 26.8126 18.0719C27.1083 18.2614 27.3188 18.5558 27.4007 18.8941C27.4826 19.2325 27.4297 19.5889 27.2528 19.8898ZM27.4316 15.0734C21.9288 11.8172 12.7253 11.5187 7.41508 13.1061C7.00644 13.2285 6.5652 13.1857 6.18855 12.9872C5.81189 12.7888 5.53061 12.4509 5.40656 12.0478C5.28251 11.6449 5.32583 11.2097 5.5271 10.8382C5.72826 10.4668 6.07092 10.1894 6.47956 10.0671C12.574 8.24901 22.6854 8.60177 29.0825 12.3328C29.4113 12.5649 29.6396 12.9106 29.7218 13.3011C29.8039 13.6916 29.734 14.0983 29.5259 14.4404C29.3179 14.7824 28.9868 15.0346 28.5989 15.1468C28.2108 15.2592 27.794 15.2233 27.4316 15.0463V15.0734Z" fill="#1ED760"/>
<path d="M52.4605 14.3057C49.1583 13.5188 48.5666 12.9491 48.5666 11.8365C48.5666 10.724 49.5985 10.0185 51.1398 10.0185C52.7915 10.0795 54.3779 10.6756 55.6515 11.7144C55.6775 11.7275 55.7056 11.7343 55.7347 11.7343C55.7628 11.7343 55.7919 11.7275 55.8169 11.7144C55.8711 11.7041 55.9202 11.6753 55.9543 11.633L57.5779 9.38078C57.61 9.34017 57.628 9.28999 57.628 9.23832C57.628 9.18664 57.61 9.13646 57.5779 9.09586C55.7879 7.6509 53.5345 6.88134 51.2221 6.92504C47.6591 6.92504 45.1691 9.04159 45.1691 12.0536C45.1691 15.2962 47.3151 16.4494 51.0295 17.3313C54.1934 18.0504 54.7299 18.6881 54.7299 19.7328C54.7299 20.7774 53.6429 21.6593 51.9782 21.6593C50.0107 21.6459 48.1254 20.8769 46.7235 19.5157C46.6703 19.498 46.6122 19.498 46.558 19.5157C46.5019 19.5291 46.4497 19.5572 46.4066 19.5971L44.5634 21.7C44.5253 21.7403 44.5033 21.7937 44.5033 21.8492C44.5033 21.9048 44.5253 21.9582 44.5634 21.9985C46.566 23.7676 49.1663 24.7353 51.8548 24.712C55.6926 24.712 58.1836 22.6361 58.1836 19.4343C58.1284 16.7615 56.4768 15.269 52.4605 14.3057Z" fill="black"/>
<path d="M66.8228 11.0902C66.0276 11.0853 65.2424 11.2602 64.5274 11.6012C63.8114 11.9421 63.1846 12.4404 62.6953 13.0575V11.565C62.6923 11.5099 62.6672 11.4581 62.6261 11.4203C62.585 11.3825 62.5308 11.3614 62.4757 11.3615H59.4903C59.4341 11.3614 59.38 11.3825 59.3389 11.4203C59.2978 11.4581 59.2737 11.5099 59.2697 11.565V28.1173C59.2697 28.1749 59.2928 28.2302 59.3339 28.2709C59.376 28.3116 59.4311 28.3344 59.4903 28.3344H62.4476C62.5057 28.3344 62.5619 28.3116 62.603 28.2709C62.6441 28.2302 62.6682 28.1749 62.6682 28.1173V22.921C63.1736 23.5122 63.8064 23.9856 64.5204 24.3069C65.2334 24.6284 66.0105 24.7898 66.7947 24.7797C69.8904 24.7797 73.0272 22.4326 73.0272 17.9282C73.0272 13.4238 69.9175 11.0902 66.8228 11.0902ZM69.5735 17.8739C69.6257 18.3591 69.5745 18.8496 69.4241 19.3143C69.2737 19.7789 69.027 20.2078 68.7001 20.5737C68.3722 20.9397 67.972 21.2347 67.5238 21.4403C67.0745 21.6458 66.5882 21.7573 66.0938 21.7678C65.5974 21.7526 65.11 21.6386 64.6598 21.4326C64.2095 21.2265 63.8064 20.9327 63.4755 20.5688C63.1435 20.2049 62.8898 19.7784 62.7294 19.3153C62.5699 18.8522 62.5067 18.3618 62.5438 17.8739C62.5087 17.387 62.5729 16.8982 62.7344 16.4366C62.8948 15.9751 63.1485 15.5503 63.4805 15.1879C63.8114 14.8256 64.2145 14.533 64.6628 14.3277C65.112 14.1224 65.5984 14.0088 66.0938 13.9936C66.5942 14.0021 67.0876 14.1134 67.5418 14.3203C67.9961 14.5272 68.4022 14.8252 68.7332 15.1953C69.0651 15.5655 69.3148 15.9997 69.4662 16.4702C69.6176 16.9407 69.6688 17.4372 69.6146 17.9282L69.5735 17.8739Z" fill="black"/>
<path d="M81.0887 11.09C79.7138 11.1142 78.3771 11.5394 77.2469 12.3119C76.1168 13.0844 75.2443 14.1696 74.7389 15.4307C74.2335 16.6917 74.1182 18.0722 74.407 19.3978C74.6968 20.7235 75.3777 21.935 76.3635 22.8796C77.3502 23.8242 78.5987 24.4595 79.9505 24.7053C81.3023 24.9512 82.6982 24.7967 83.9617 24.2612C85.2243 23.7258 86.2993 22.8333 87.0484 21.6966C87.7985 20.5599 88.1896 19.2296 88.1735 17.8737C88.1605 16.9692 87.9679 16.076 87.6049 15.2453C87.2409 14.4145 86.7154 13.6626 86.0576 13.0325C85.3997 12.4023 84.6216 11.9064 83.7692 11.5731C82.9168 11.2398 82.0052 11.0756 81.0887 11.09ZM81.0887 21.849C80.5803 21.8424 80.0789 21.7346 79.6136 21.5319C79.1493 21.3292 78.7301 21.0359 78.3831 20.6696C78.0361 20.3034 77.7684 19.8717 77.5949 19.4005C77.4214 18.9294 77.3462 18.4285 77.3743 17.9279C77.3422 17.4343 77.4134 16.9395 77.5819 16.4739C77.7514 16.0084 78.0161 15.582 78.359 15.221C78.702 14.86 79.1162 14.5721 79.5755 14.3749C80.0358 14.1778 80.5321 14.0756 81.0335 14.0748C81.543 14.0779 82.0474 14.1826 82.5147 14.3827C82.983 14.5827 83.4052 14.874 83.7562 15.239C84.1061 15.604 84.3789 16.0352 84.5564 16.5065C84.7339 16.9779 84.8131 17.4799 84.789 17.9822C84.8211 18.4799 84.7489 18.9788 84.5774 19.4478C84.406 19.9169 84.1382 20.3461 83.7913 20.7087C83.4433 21.0714 83.0251 21.3598 82.5598 21.5559C82.0945 21.7521 81.5941 21.8518 81.0887 21.849Z" fill="black"/>
<path d="M96.6892 11.3618H93.4291V8.07853C93.4291 8.02326 93.408 7.96999 93.3689 7.92958C93.3308 7.88928 93.2787 7.86494 93.2225 7.86145H90.2642C90.2061 7.86145 90.1499 7.88429 90.1088 7.92499C90.0677 7.9657 90.0446 8.02097 90.0446 8.07853V11.3618H88.5865C88.5595 11.3618 88.5324 11.3671 88.5073 11.3774C88.4822 11.3875 88.4592 11.4026 88.4401 11.4214C88.4211 11.4403 88.406 11.4628 88.396 11.4875C88.385 11.5121 88.38 11.5387 88.38 11.5653V14.0753C88.38 14.1306 88.401 14.1839 88.4391 14.2243C88.4782 14.2646 88.5304 14.2889 88.5865 14.2924H89.9624V20.7776C89.9624 23.3962 91.3372 24.7258 93.8964 24.7258C94.8591 24.7526 95.8108 24.5179 96.6481 24.0474C96.6812 24.0316 96.7103 24.0066 96.7293 23.9753C96.7494 23.944 96.7584 23.9077 96.7584 23.871V21.4831C96.7584 21.4462 96.7504 21.4096 96.7333 21.3766C96.7163 21.3436 96.6922 21.3149 96.6621 21.2932C96.629 21.2727 96.5909 21.2619 96.5518 21.2619C96.5127 21.2619 96.4746 21.2727 96.4415 21.2932C95.904 21.5615 95.3104 21.701 94.7077 21.7002C93.759 21.7002 93.3328 21.2796 93.3328 20.3435V14.2924H96.5929C96.6511 14.2924 96.7073 14.2696 96.7484 14.2288C96.7895 14.1881 96.8126 14.1329 96.8126 14.0753V11.5653C96.8146 11.5232 96.8035 11.4816 96.7815 11.4454C96.7594 11.4093 96.7273 11.3802 96.6892 11.3618Z" fill="black"/>
<path d="M108.038 11.3757V10.9686C108.038 9.7748 108.492 9.24566 109.524 9.24566C110.098 9.25215 110.666 9.35779 111.203 9.55772C111.233 9.57118 111.266 9.57817 111.299 9.57817C111.332 9.57817 111.365 9.57118 111.395 9.55772C111.422 9.53667 111.444 9.50973 111.458 9.4791C111.472 9.44848 111.479 9.41506 111.478 9.38134V6.89847C111.48 6.85088 111.467 6.80389 111.44 6.76468C111.412 6.72548 111.372 6.69625 111.326 6.68138C110.523 6.47298 109.694 6.3816 108.864 6.41003C106.113 6.41003 104.737 7.9296 104.737 10.7924V11.4164H103.361C103.307 11.4164 103.254 11.4378 103.216 11.476C103.176 11.5142 103.154 11.5659 103.154 11.6199V14.1435C103.154 14.1987 103.176 14.252 103.215 14.2924C103.253 14.3327 103.305 14.3571 103.361 14.3606H104.737V24.3733C104.737 24.4273 104.759 24.4791 104.797 24.5172C104.836 24.5554 104.888 24.5769 104.943 24.5769H107.846C107.902 24.577 107.956 24.5559 107.997 24.5181C108.038 24.4803 108.062 24.4285 108.066 24.3733V14.2927H110.818L115.055 24.2919C114.573 25.3502 114.092 25.5537 113.445 25.5537C112.875 25.5385 112.317 25.3846 111.822 25.106C111.794 25.0927 111.764 25.0859 111.732 25.0859C111.701 25.0859 111.671 25.0927 111.643 25.106C111.615 25.1139 111.59 25.1277 111.569 25.1464C111.547 25.1653 111.53 25.1885 111.519 25.2145L110.597 27.3717C110.577 27.4208 110.576 27.4754 110.593 27.5254C110.611 27.5753 110.646 27.6172 110.694 27.643C111.655 28.1869 112.749 28.4636 113.857 28.4435C116.031 28.4435 117.242 27.4395 118.315 24.7397L123.446 11.6606C123.463 11.6293 123.472 11.5944 123.472 11.5588C123.472 11.5234 123.463 11.4885 123.446 11.4571C123.425 11.4307 123.398 11.4097 123.367 11.3956C123.336 11.3815 123.302 11.3747 123.268 11.3757H120.104C120.06 11.3785 120.018 11.3924 119.982 11.4163C119.945 11.44 119.916 11.4728 119.897 11.5114L116.746 20.398L113.349 11.5114C113.332 11.4709 113.304 11.4363 113.267 11.4122C113.23 11.3879 113.187 11.3753 113.142 11.3757H108.038Z" fill="black"/>
<path d="M101.462 11.3619H98.5052C98.3839 11.3619 98.2846 11.459 98.2846 11.579V24.3052C98.2846 24.4251 98.3839 24.5223 98.5052 24.5223H101.462C101.585 24.5223 101.683 24.4251 101.683 24.3052V11.579C101.683 11.459 101.585 11.3619 101.462 11.3619Z" fill="black"/>
<path d="M99.9906 5.55546C99.5684 5.55277 99.1542 5.67388 98.8022 5.90323C98.4493 6.13268 98.1745 6.4602 98.011 6.84418C97.8476 7.22827 97.8034 7.65146 97.8837 8.06028C97.9649 8.46911 98.1665 8.84511 98.4643 9.1406C98.7621 9.436 99.1422 9.63762 99.5554 9.71992C99.9695 9.80212 100.399 9.76132 100.79 9.6026C101.18 9.44378 101.514 9.17422 101.748 8.82815C101.984 8.48208 102.11 8.07495 102.11 7.65844C102.111 7.3829 102.057 7.10975 101.952 6.85466C101.846 6.59957 101.69 6.36772 101.494 6.17219C101.296 5.97676 101.063 5.82163 100.805 5.71578C100.546 5.60993 100.27 5.55546 99.9906 5.55546Z" fill="black"/>
<path d="M125.909 15.4455C125.635 15.4473 125.365 15.3955 125.112 15.2933C124.859 15.1909 124.629 15.0401 124.436 14.8495C124.242 14.6589 124.09 14.4323 123.986 14.183C123.882 13.9336 123.83 13.6664 123.832 13.3969C123.832 12.8499 124.052 12.3254 124.444 11.9386C124.836 11.5519 125.369 11.3346 125.923 11.3346C126.196 11.3328 126.467 11.3846 126.72 11.4869C126.973 11.5892 127.203 11.7401 127.396 11.9306C127.589 12.1213 127.742 12.3478 127.846 12.5972C127.95 12.8465 128.002 13.1138 128 13.3833C128 13.9302 127.78 14.4548 127.388 14.8416C126.995 15.2282 126.464 15.4455 125.909 15.4455ZM125.909 11.5381C125.535 11.5355 125.169 11.6425 124.857 11.8457C124.545 12.0489 124.302 12.339 124.157 12.6792C124.013 13.0194 123.974 13.3943 124.046 13.7562C124.118 14.1179 124.299 14.4504 124.562 14.7112C124.827 14.9719 125.164 15.1492 125.531 15.2205C125.898 15.2918 126.278 15.2538 126.623 15.1114C126.968 14.9691 127.262 14.7287 127.468 14.4211C127.674 14.1133 127.782 13.7521 127.78 13.3833C127.782 13.1416 127.735 12.902 127.643 12.6782C127.55 12.4545 127.413 12.2509 127.241 12.0794C127.068 11.9079 126.863 11.7717 126.637 11.6788C126.41 11.5859 126.168 11.5381 125.923 11.5381H125.909ZM126.376 13.6003L126.955 14.4144H126.46L125.936 13.6683H125.483V14.4144H125.056V12.2572H126.033C126.542 12.2572 126.886 12.515 126.886 12.9356C126.889 13.0847 126.842 13.2306 126.752 13.3507C126.663 13.4709 126.536 13.5586 126.39 13.6003H126.376ZM126.019 12.6236H125.483V13.3019H126.019C126.294 13.3019 126.46 13.1798 126.46 12.9627C126.46 12.7457 126.308 12.6236 126.033 12.6236H126.019Z" fill="black"/>
</svg>
